<svg width="247.1576416015625px" height="162.79999999999998px" xmlns="http://www.w3.org/2000/svg" viewBox="126.42117919921876 -6.3999999999999915 247.1576416015625 162.79999999999998" style="background: rgb(40, 41, 47);" preserveAspectRatio="xMidYMid"><defs><filter id="editing-extrusion" x="-100%" y="-100%" width="300%" height="300%"><feFlood result="color1" flood-color="#ffffff"></feFlood><feConvolveMatrix order="8,8" divisor="1" kernelMatrix="1 0 0 0 0 0 0 0 0 1 0 0 0 0 0 0 0 0 1 0 0 0 0 0 0 0 0 1 0 0 0 0 0 0 0 0 1 0 0 0 0 0 0 0 0 1 0 0 0 0 0 0 0 0 1 0 0 0 0 0 0 0 0 1" in="SourceAlpha" result="extrude"></feConvolveMatrix><feComposite in="color1" in2="extrude" result="comp-extrude" operator="in"></feComposite><feOffset dx="4" dy="4" in="comp-extrude" result="offset-extrude"></feOffset><feMerge><feMergeNode in="offset-extrude"></feMergeNode><feMergeNode in="SourceGraphic"></feMergeNode></feMerge></filter></defs><g filter="url(#editing-extrusion)"><g transform="translate(167.01052981615067, 106.36499977111816)"><path d="M19.89 0L0.72 0L10.98-54.72L11.97-59.40L31.23-59.40L19.89 0ZM56.43-5.31L56.43-5.31L56.43-5.31Q54 1.80 44.64 1.80L44.64 1.80L44.64 1.80Q37.71 1.80 32.94-6.48L32.94-6.48L32.94-6.48Q28.08-14.76 27.18-28.26L27.18-28.26L27.18-28.26Q37.08-46.35 43.92-53.82L43.92-53.82L43.92-53.82Q50.49-60.93 57.33-60.93L57.33-60.93L57.33-60.93Q61.02-60.93 63.67-58.95L63.67-58.95L63.67-58.95Q66.33-56.97 66.96-53.82L66.96-53.82L66.96-53.82Q63.90-52.56 62.46-51.57L62.46-51.57L62.46-51.57Q58.86-48.87 54-42.84L54-42.84L45.81-33.03L45.81-33.03Q43.83-30.69 43.02-29.61L43.02-29.61L43.02-29.61Q44.37-22.05 48.42-14.58L48.42-14.58L48.42-14.58Q52.29-7.47 56.43-5.31ZM101.70-13.86L101.70-13.86L101.70-13.86Q103.41-11.70 103.41-7.51L103.41-7.51L103.41-7.51Q103.41-3.33 100.22-0.77L100.22-0.77L100.22-0.77Q97.02 1.80 91.44 1.80L91.44 1.80L91.44 1.80Q88.20 1.80 83.16 1.08L83.16 1.08L83.16 1.08Q73.26-0.45 70.42-0.45L70.42-0.45L70.42-0.45Q67.59-0.45 66.42-0.32L66.42-0.32L66.42-0.32Q65.25-0.18 63.36 0L63.36 0L74.25-59.40L93.96-59.40L84.96-9.90L84.96-9.90Q86.13-9.72 87.21-9.72L87.21-9.72L89.46-9.72L89.46-9.72Q97.02-9.72 101.70-13.86ZM144.63-60.03L144.63-60.03L144.63-60.03Q166.68-60.03 166.68-44.46L166.68-44.46L166.68-44.46Q166.68-35.91 161.19-30.78L161.19-30.78L161.19-30.78Q155.79-25.65 146.34-25.65L146.34-25.65L146.34-25.65Q141.93-25.65 138.51-28.17L138.51-28.17L138.51-28.17Q136.89-29.25 135.81-30.69L135.81-30.69L135.81-30.69Q142.38-30.69 145.84-34.70L145.84-34.70L145.84-34.70Q149.31-38.70 149.31-46.53L149.31-46.53L149.31-46.53Q149.31-54.36 141.57-54.36L141.57-54.36L139.41-54.36L139.41-54.36Q138.87-54.36 138.42-54.27L138.42-54.27L128.07 0L108.54 0L119.61-58.95L119.61-58.95Q129.24-59.85 134.82-59.94L134.82-59.94L134.82-59.94Q140.40-60.03 144.63-60.03Z" fill="#0a0a0a"></path></g></g><style>text {
  font-size: 64px;
  font-family: Arial Black;
  dominant-baseline: central;
  text-anchor: middle;
}</style></svg>